<svg width="148" height="54" viewBox="0 0 148 54" fill="none" xmlns="http://www.w3.org/2000/svg">
<path d="M2.8125 11.3906V29.625C2.8125 31.1016 2.97656 32.5547 3.30469 33.9141C4.875 40.4297 10.0547 45.0234 17.3672 45.0234C24.6797 45.0234 29.8359 40.4297 31.4062 33.9141C31.7109 32.5547 31.8984 31.1016 31.8984 29.625V11.3906H24.8906V29.7422C24.8906 30.8203 24.75 31.875 24.4688 32.8828C23.6016 36.0234 21.2812 38.5312 17.3438 38.5312C13.4531 38.5312 11.1328 36.0234 10.2422 32.8828C9.96094 31.875 9.82031 30.8203 9.82031 29.7422V11.3906H2.8125ZM34.6641 45H43.3125L51.5625 32.9062L59.8125 45H68.4844L55.6172 27.2578L67.1016 11.4141H58.5L51.5625 21.5625L44.625 11.4141H36.0234L47.5078 27.2578L34.6641 45ZM91.1953 4.96875L69.7969 51.7266H77.1797L98.5781 4.96875H91.1953ZM102.328 11.3906V29.625C102.328 31.1016 102.492 32.5547 102.82 33.9141C104.391 40.4297 109.57 45.0234 116.883 45.0234C124.195 45.0234 129.352 40.4297 130.922 33.9141C131.227 32.5547 131.414 31.1016 131.414 29.625V11.3906H124.406V29.7422C124.406 30.8203 124.266 31.875 123.984 32.8828C123.117 36.0234 120.797 38.5312 116.859 38.5312C112.969 38.5312 110.648 36.0234 109.758 32.8828C109.477 31.875 109.336 30.8203 109.336 29.7422V11.3906H102.328ZM137.414 45H144.445V11.3906H137.414V45Z" fill="#00C4F0"/>
</svg>
